<svg width="277" height="179" viewBox="0 0 277 179" fill="none" xmlns="http://www.w3.org/2000/svg">
<path d="M39.9508 175.537C39.8215 169.959 39.1195 164.436 38.9911 158.898C38.9359 156.518 38.8808 154.138 38.8256 151.759C38.8044 150.845 38.7833 149.931 38.7621 149.018C38.735 147.849 38.9565 148.118 40.1078 147.918C41.618 147.656 42.9527 146.801 44.5127 146.732C46.3903 146.649 48.2751 146.645 50.1539 146.601C52.0535 146.557 53.9584 146.471 55.8588 146.469C57.5945 146.467 59.4202 148.787 59.4581 150.419C59.5026 152.339 58.0955 154.577 56.5526 155.764C55.4999 156.574 53.547 157.049 52.2673 157.299C49.2862 157.879 46.2143 158.141 43.1851 158.242C42.1246 158.278 36.8995 158.675 40.8333 158.584C45.2092 158.483 49.6852 158.093 54.0602 158.293C56.5658 158.408 58.6202 159.867 60.1346 161.724C60.8313 162.578 60.6142 166.82 60.3732 167.889C59.7703 170.562 56.7146 172.141 54.5345 173.254C51.9263 174.585 49.0693 175.262 46.2778 176.108C45.2354 176.424 40.7978 176.863 40.2443 175.817" stroke="black" stroke-width="5" stroke-linecap="round"/>
<path d="M68.4703 143.02C68.6021 148.705 68.8137 154.601 69.7935 160.208C70.0677 161.778 70.2661 163.333 70.4765 164.912C70.8558 167.758 71.1436 170.609 71.4083 173.468C71.4709 174.145 71.3367 175.133 71.5419 175.793C71.6132 176.023 83.0269 172.771 84.6378 171.918" stroke="black" stroke-width="5" stroke-linecap="round"/>
<path d="M117.779 153.069C117.704 149.836 115.642 147.953 112.496 148.026C110.531 148.072 108.565 148.117 106.6 148.163C103.938 148.224 101.661 148.918 99.1066 149.548C93.189 151.008 92.5454 158.563 93.6234 163.371C94.1641 165.782 97.9068 168.083 99.8508 169.27C104.332 172.006 114.745 171.952 116.416 165.793C116.783 164.437 119.564 152.454 117.479 152.502" stroke="black" stroke-width="5" stroke-linecap="round"/>
<path d="M146.577 144.94C142.652 145.031 139.339 144.374 135.831 146.337C134.162 147.271 133.457 149.596 132.948 151.283C132.313 153.386 131.896 155.573 131.311 157.698C130.349 161.198 131.527 165.41 134.129 167.837C136.641 170.18 138.877 170.447 142.222 170.296C145.869 170.132 150.622 167.657 152.192 164.325C153.686 161.155 154.074 158.855 153.994 155.387C153.947 153.383 153.466 151.971 152.504 150.255C151.975 149.313 150.997 148.822 150.443 148.007C149.659 146.856 147.676 145.488 146.303 145.52" stroke="black" stroke-width="5" stroke-linecap="round"/>
<path d="M166.433 172.031C166.311 166.773 166.19 161.514 166.068 156.255C166.023 154.343 165.979 152.431 165.935 150.518C165.917 149.742 166.126 148.475 165.728 147.797C165.287 147.044 165.535 145.651 165.515 144.788C165.492 143.799 167.485 144.169 168.227 144.151C171.297 144.08 174.367 144.009 177.437 143.938C179.008 143.901 181.847 143.333 182.802 144.962C184.718 148.229 187.761 153.539 185.255 157.245C183.516 159.818 182.125 160.432 179.273 161.242C177.341 161.791 175.019 161.501 173.014 161.547C170.741 161.6 168.467 161.652 166.194 161.705" stroke="black" stroke-width="5" stroke-linecap="round"/>
<path d="M2.84446 43V10.2727H15.9482C18.3558 10.2727 20.364 10.6296 21.9727 11.3434C23.5813 12.0572 24.7905 13.0479 25.6001 14.3157C26.4098 15.5728 26.8146 17.0217 26.8146 18.6623C26.8146 19.9407 26.5589 21.0646 26.0476 22.0341C25.5362 22.9929 24.8331 23.7812 23.9382 24.3991C23.054 25.0064 22.0419 25.4379 20.902 25.6935V26.0131C22.1484 26.0664 23.315 26.418 24.4016 27.0678C25.4989 27.7177 26.3885 28.6286 27.0703 29.8004C27.7521 30.9616 28.093 32.3466 28.093 33.9553C28.093 35.6918 27.6616 37.2418 26.7987 38.6055C25.9464 39.9585 24.6839 41.0291 23.0114 41.8175C21.3388 42.6058 19.2773 43 16.8271 43H2.84446ZM9.76385 37.343H15.4048C17.3331 37.343 18.7393 36.9755 19.6236 36.2404C20.5078 35.4947 20.9499 34.5039 20.9499 33.2681C20.9499 32.3626 20.7315 31.5636 20.2947 30.8711C19.858 30.1786 19.2347 29.6353 18.4251 29.2411C17.6261 28.8469 16.6726 28.6499 15.5646 28.6499H9.76385V37.343ZM9.76385 23.9677H14.8935C15.8416 23.9677 16.6832 23.8026 17.4183 23.4723C18.1641 23.1314 18.75 22.652 19.1761 22.0341C19.6129 21.4162 19.8313 20.6758 19.8313 19.8129C19.8313 18.6303 19.4105 17.6768 18.5689 16.9524C17.7379 16.228 16.5554 15.8658 15.0213 15.8658H9.76385V23.9677ZM32.5954 43V10.2727H39.5148V37.2951H53.5454V43H32.5954ZM86.9278 26.6364C86.9278 30.2053 86.2513 33.2415 84.8983 35.745C83.556 38.2486 81.7236 40.1609 79.4012 41.4819C77.0894 42.7923 74.49 43.4474 71.6029 43.4474C68.6945 43.4474 66.0844 42.7869 63.7726 41.4659C61.4608 40.1449 59.6338 38.2326 58.2915 35.729C56.9491 33.2255 56.278 30.1946 56.278 26.6364C56.278 23.0675 56.9491 20.0312 58.2915 17.5277C59.6338 15.0241 61.4608 13.1172 63.7726 11.8068C66.0844 10.4858 68.6945 9.82528 71.6029 9.82528C74.49 9.82528 77.0894 10.4858 79.4012 11.8068C81.7236 13.1172 83.556 15.0241 84.8983 17.5277C86.2513 20.0312 86.9278 23.0675 86.9278 26.6364ZM79.9126 26.6364C79.9126 24.3246 79.5663 22.375 78.8738 20.7876C78.192 19.2003 77.2279 17.9964 75.9814 17.1761C74.735 16.3558 73.2755 15.9457 71.6029 15.9457C69.9303 15.9457 68.4708 16.3558 67.2243 17.1761C65.9779 17.9964 65.0084 19.2003 64.316 20.7876C63.6341 22.375 63.2932 24.3246 63.2932 26.6364C63.2932 28.9482 63.6341 30.8977 64.316 32.4851C65.0084 34.0724 65.9779 35.2763 67.2243 36.0966C68.4708 36.9169 69.9303 37.3271 71.6029 37.3271C73.2755 37.3271 74.735 36.9169 75.9814 36.0966C77.2279 35.2763 78.192 34.0724 78.8738 32.4851C79.5663 30.8977 79.9126 28.9482 79.9126 26.6364ZM122.128 26.6364C122.128 30.2053 121.452 33.2415 120.099 35.745C118.756 38.2486 116.924 40.1609 114.601 41.4819C112.29 42.7923 109.69 43.4474 106.803 43.4474C103.895 43.4474 101.285 42.7869 98.9728 41.4659C96.661 40.1449 94.834 38.2326 93.4917 35.729C92.1493 33.2255 91.4782 30.1946 91.4782 26.6364C91.4782 23.0675 92.1493 20.0312 93.4917 17.5277C94.834 15.0241 96.661 13.1172 98.9728 11.8068C101.285 10.4858 103.895 9.82528 106.803 9.82528C109.69 9.82528 112.29 10.4858 114.601 11.8068C116.924 13.1172 118.756 15.0241 120.099 17.5277C121.452 20.0312 122.128 23.0675 122.128 26.6364ZM115.113 26.6364C115.113 24.3246 114.767 22.375 114.074 20.7876C113.392 19.2003 112.428 17.9964 111.182 17.1761C109.935 16.3558 108.476 15.9457 106.803 15.9457C105.131 15.9457 103.671 16.3558 102.425 17.1761C101.178 17.9964 100.209 19.2003 99.5162 20.7876C98.8343 22.375 98.4934 24.3246 98.4934 26.6364C98.4934 28.9482 98.8343 30.8977 99.5162 32.4851C100.209 34.0724 101.178 35.2763 102.425 36.0966C103.671 36.9169 105.131 37.3271 106.803 37.3271C108.476 37.3271 109.935 36.9169 111.182 36.0966C112.428 35.2763 113.392 34.0724 114.074 32.4851C114.767 30.8977 115.113 28.9482 115.113 26.6364ZM127.254 43V10.2727H140.166C142.648 10.2727 144.763 10.7468 146.51 11.695C148.257 12.6325 149.589 13.9375 150.505 15.6101C151.432 17.272 151.895 19.1896 151.895 21.3629C151.895 23.5362 151.426 25.4538 150.489 27.1158C149.551 28.7777 148.193 30.0721 146.414 30.9989C144.645 31.9258 142.504 32.3892 139.99 32.3892H131.76V26.8441H138.871C140.203 26.8441 141.3 26.6151 142.163 26.157C143.037 25.6882 143.687 25.0437 144.113 24.2234C144.549 23.3924 144.768 22.4389 144.768 21.3629C144.768 20.2763 144.549 19.3281 144.113 18.5185C143.687 17.6982 143.037 17.0643 142.163 16.6168C141.29 16.1587 140.182 15.9297 138.839 15.9297H134.173V43H127.254Z" fill="black"/>
<path d="M162 81.9877L160 109.988H174.5M255 109.988V95.9877M255 95.9877V81.9877C257.333 80.8212 263 79.1881 267 81.9877C272 85.4873 277 93.4873 270.5 95.4873C265.3 97.0873 258 96.4876 255 95.9877ZM131 109.988V81.9877C134.167 80.4877 141.5 78.3877 145.5 81.9877C150.5 86.4877 150 93.4873 145.5 93.4873C141.9 93.4873 138 94.8206 136.5 95.4873C140.833 94.9873 149.6 95.0873 150 99.4873C150.5 104.987 150.5 109.988 145.5 109.988C141.5 109.988 134.167 109.988 131 109.988ZM197 81.9877C191 81.9877 184.5 84.4873 184 93.4873C183.5 102.487 187 109.826 195 109.826C203 109.826 207.5 102.826 207.5 95.3257C207.5 89.3257 201.167 83.9876 197 81.9877ZM232 81.9877C243 81.9877 245 91.4873 245 95.4873C245 99.4873 243 110.149 232 109.988C221 109.826 219.5 101.326 219.5 93.4873C219.5 87.2166 221 81.9877 232 81.9877Z" stroke="url(#paint0_linear_102_12)" stroke-width="5"/>
<defs>
<linearGradient id="paint0_linear_102_12" x1="300.848" y1="80" x2="107.969" y2="85.323" gradientUnits="userSpaceOnUse">
<stop stop-color="#394DFF"/>
<stop offset="0.363997" stop-color="#9C39FF"/>
<stop offset="1" stop-color="#FF9839"/>
</linearGradient>
</defs>
</svg>
